<svg id="Capa_1" enable-background="new 0 0 512 512" height="512" viewBox="0 0 512 512" width="512" xmlns="http://www.w3.org/2000/svg"><g><path d="m136 388.797v-266.192l120-71.982 120 71.982v266.192l-120 71.982z" fill="#c1f261"/><path d="m376 388.797v-266.192l-120-71.982v410.156z" fill="#a0e65c"/><g><g id="Gem_3_"><g fill="#79cc52"><path d="m256 425.801 30 34.978-30 51.221-165-97.9 37.5-51.149 37.5 8.85z"/><path d="m421 97.3v316.8l-67.5 8.851-7.5-51.15v-232.2l7.5-51.15z"/><path d="m256 0 30 40.823-30 44.777-90 54.001-38.077 8.525-36.923-50.826z"/></g></g><g fill="#59b348"><path d="m421 97.3-75 42.301-90-54.001v-85.6z"/><path d="m166 139.601v232.2l-75 42.299v-316.8z"/><path d="m421 414.1-165 97.9v-86.199l90-54z"/></g></g></g></svg>