<svg width="511.401" height="80.101" viewBox="0 0 511.401 80.101" xmlns="http://www.w3.org/2000/svg"><g id="svgGroup" stroke-linecap="round" fill-rule="evenodd" font-size="9pt" stroke="#000" stroke-width="0.25mm" fill="#fff" style="stroke:#000;stroke-width:0.25mm;fill:none"><path d="M 120.801 55.3 L 80.501 55.3 L 80.501 47.3 L 120.501 47.3 L 116.401 50.1 A 23.599 23.599 0 0 0 115.753 44.946 A 19.352 19.352 0 0 0 114.401 41.15 Q 112.501 37.2 109.001 34.9 Q 105.501 32.6 100.501 32.6 A 21.744 21.744 0 0 0 95.829 33.079 A 16.208 16.208 0 0 0 90.751 35.1 Q 86.701 37.6 84.601 41.95 A 21.111 21.111 0 0 0 82.676 48.717 A 26.421 26.421 0 0 0 82.501 51.8 A 20.666 20.666 0 0 0 83.292 57.608 A 17.847 17.847 0 0 0 85.001 61.6 Q 87.501 65.9 91.901 68.4 A 19.151 19.151 0 0 0 99.232 70.744 A 23.962 23.962 0 0 0 102.001 70.9 Q 105.101 70.9 108.351 69.75 Q 110.839 68.87 112.594 67.784 A 13.581 13.581 0 0 0 113.601 67.1 A 5.91 5.91 0 0 1 115.573 66.135 A 5.529 5.529 0 0 1 116.851 65.95 A 5.298 5.298 0 0 1 117.002 65.948 A 4.351 4.351 0 0 1 119.901 67 A 6.438 6.438 0 0 1 120.88 68.067 Q 121.505 68.937 121.657 69.896 A 3.965 3.965 0 0 1 121.701 70.3 A 3.577 3.577 0 0 1 121.706 70.499 Q 121.706 71.728 120.84 72.717 A 5.081 5.081 0 0 1 120.101 73.4 A 23.954 23.954 0 0 1 116.022 75.987 A 32.783 32.783 0 0 1 111.651 77.8 A 33.493 33.493 0 0 1 106.187 79.163 A 26.851 26.851 0 0 1 102.001 79.5 A 33.141 33.141 0 0 1 93.704 78.498 A 27.622 27.622 0 0 1 87.251 75.95 Q 80.801 72.4 77.151 66.15 A 26.82 26.82 0 0 1 73.675 55.255 A 33.469 33.469 0 0 1 73.501 51.8 Q 73.501 43.6 76.951 37.35 Q 80.401 31.1 86.501 27.55 A 26.235 26.235 0 0 1 97.123 24.171 A 32.734 32.734 0 0 1 100.501 24 Q 108.301 24 113.901 27.45 Q 119.501 30.9 122.451 36.95 A 28.828 28.828 0 0 1 125.02 45.461 A 37.502 37.502 0 0 1 125.401 50.9 A 4.556 4.556 0 0 1 125.115 52.539 A 4.122 4.122 0 0 1 124.101 54.05 A 4.435 4.435 0 0 1 121.351 55.275 A 5.958 5.958 0 0 1 120.801 55.3 Z M 506.801 55.3 L 466.501 55.3 L 466.501 47.3 L 506.501 47.3 L 502.401 50.1 A 23.599 23.599 0 0 0 501.753 44.946 A 19.352 19.352 0 0 0 500.401 41.15 Q 498.501 37.2 495.001 34.9 Q 491.501 32.6 486.501 32.6 A 21.744 21.744 0 0 0 481.829 33.079 A 16.208 16.208 0 0 0 476.751 35.1 Q 472.701 37.6 470.601 41.95 A 21.111 21.111 0 0 0 468.676 48.717 A 26.421 26.421 0 0 0 468.501 51.8 A 20.666 20.666 0 0 0 469.292 57.608 A 17.847 17.847 0 0 0 471.001 61.6 Q 473.501 65.9 477.901 68.4 A 19.151 19.151 0 0 0 485.232 70.744 A 23.962 23.962 0 0 0 488.001 70.9 Q 491.101 70.9 494.351 69.75 Q 496.839 68.87 498.594 67.784 A 13.581 13.581 0 0 0 499.601 67.1 A 5.91 5.91 0 0 1 501.573 66.135 A 5.529 5.529 0 0 1 502.851 65.95 A 5.298 5.298 0 0 1 503.002 65.948 A 4.351 4.351 0 0 1 505.901 67 A 6.438 6.438 0 0 1 506.88 68.067 Q 507.505 68.937 507.657 69.896 A 3.965 3.965 0 0 1 507.701 70.3 A 3.577 3.577 0 0 1 507.706 70.499 Q 507.706 71.728 506.84 72.717 A 5.081 5.081 0 0 1 506.101 73.4 A 23.954 23.954 0 0 1 502.022 75.987 A 32.783 32.783 0 0 1 497.651 77.8 A 33.493 33.493 0 0 1 492.187 79.163 A 26.851 26.851 0 0 1 488.001 79.5 A 33.141 33.141 0 0 1 479.704 78.498 A 27.622 27.622 0 0 1 473.251 75.95 Q 466.801 72.4 463.151 66.15 A 26.82 26.82 0 0 1 459.675 55.255 A 33.469 33.469 0 0 1 459.501 51.8 Q 459.501 43.6 462.951 37.35 Q 466.401 31.1 472.501 27.55 A 26.235 26.235 0 0 1 483.123 24.171 A 32.734 32.734 0 0 1 486.501 24 Q 494.301 24 499.901 27.45 Q 505.501 30.9 508.451 36.95 A 28.828 28.828 0 0 1 511.02 45.461 A 37.502 37.502 0 0 1 511.401 50.9 A 4.556 4.556 0 0 1 511.115 52.539 A 4.122 4.122 0 0 1 510.101 54.05 A 4.435 4.435 0 0 1 507.351 55.275 A 5.958 5.958 0 0 1 506.801 55.3 Z M 64.701 67.7 A 7.879 7.879 0 0 0 64.699 67.54 Q 64.683 66.774 64.518 66.126 A 4.135 4.135 0 0 0 63.501 64.25 Q 62.301 63 60.551 62.85 A 4.244 4.244 0 0 0 60.188 62.835 Q 59.205 62.835 58.205 63.29 A 7.08 7.08 0 0 0 57.001 64 Q 52.801 67.1 48.251 68.85 Q 43.701 70.6 38.601 70.6 Q 32.701 70.6 27.501 68.25 Q 22.301 65.9 18.351 61.7 Q 14.401 57.5 12.201 51.95 Q 10.001 46.4 10.001 40 A 35.976 35.976 0 0 1 10.001 39.804 A 31.812 31.812 0 0 1 12.201 28.15 Q 14.401 22.6 18.351 18.4 Q 22.301 14.2 27.501 11.8 Q 32.701 9.4 38.601 9.4 A 42.204 42.204 0 0 1 41.965 9.527 Q 44.005 9.691 45.73 10.064 A 18.079 18.079 0 0 1 49.051 11.1 A 26.571 26.571 0 0 1 52.219 12.729 A 32.176 32.176 0 0 1 56.701 16 A 6.654 6.654 0 0 0 57.412 16.513 Q 58.686 17.307 60.092 17.307 A 5.054 5.054 0 0 0 60.351 17.3 Q 62.301 17.2 63.651 15.9 A 4.423 4.423 0 0 0 64.562 14.672 A 4.389 4.389 0 0 0 65.001 12.7 A 10.096 10.096 0 0 0 64.997 12.418 Q 64.987 12.065 64.952 11.755 A 5.38 5.38 0 0 0 64.851 11.15 Q 64.701 10.5 64.251 9.85 A 4.038 4.038 0 0 0 64.186 9.759 Q 63.952 9.441 63.634 9.135 A 6.793 6.793 0 0 0 63.001 8.6 A 45.218 45.218 0 0 0 57.762 4.859 A 32.999 32.999 0 0 0 51.851 2 Q 48.555 0.813 44.502 0.33 A 50 50 0 0 0 38.601 0 A 42.517 42.517 0 0 0 37.074 0.028 A 36.698 36.698 0 0 0 23.401 3.1 Q 16.401 6.2 11.151 11.65 Q 5.901 17.1 2.951 24.35 Q 0.001 31.6 0.001 40 A 47.737 47.737 0 0 0 0.047 42.107 A 41.113 41.113 0 0 0 2.951 55.8 Q 5.901 63.1 11.151 68.55 Q 16.401 74 23.451 77.05 A 36.593 36.593 0 0 0 24.336 77.42 A 37.895 37.895 0 0 0 38.601 80.1 Q 45.401 80.1 51.601 77.95 Q 57.801 75.8 63.101 71.4 A 5.286 5.286 0 0 0 63.698 70.779 A 3.972 3.972 0 0 0 64.351 69.65 Q 64.701 68.7 64.701 67.7 Z M 243.372 78.576 A 39.948 39.948 0 0 0 252.101 79.5 Q 259.201 79.5 263.951 77.3 A 20.548 20.548 0 0 0 266.945 75.611 A 15.44 15.44 0 0 0 271.151 71.4 Q 273.601 67.7 273.601 63.1 A 15.718 15.718 0 0 0 273.522 61.514 A 12.585 12.585 0 0 0 271.701 56.05 A 11.219 11.219 0 0 0 270.696 54.686 Q 268.799 52.471 265.451 50.7 A 28.507 28.507 0 0 0 262.088 49.214 Q 260.22 48.517 257.981 47.916 A 69.372 69.372 0 0 0 253.601 46.9 Q 249.846 46.135 247.348 45.346 A 24.921 24.921 0 0 1 245.401 44.65 A 17.418 17.418 0 0 1 244.92 44.445 Q 243.423 43.776 242.522 43.012 A 4.547 4.547 0 0 1 241.651 42.05 Q 240.701 40.6 240.701 38.8 A 4.352 4.352 0 0 1 242.242 35.384 A 6.855 6.855 0 0 1 243.751 34.4 A 12.275 12.275 0 0 1 244.506 34.06 Q 247.331 32.9 251.201 32.9 A 31.384 31.384 0 0 1 251.672 32.904 Q 255.182 32.957 257.901 33.8 A 12.36 12.36 0 0 1 260.532 34.974 A 15.11 15.11 0 0 1 263.301 37.1 A 6.793 6.793 0 0 0 264.705 38.111 A 7.661 7.661 0 0 0 267.001 38.9 Q 267.587 39.007 268.131 39.007 A 4.6 4.6 0 0 0 270.801 38.2 Q 272.401 37 272.501 35.25 A 4.077 4.077 0 0 0 272.507 35.018 Q 272.507 34.003 271.997 33.039 A 6.004 6.004 0 0 0 271.201 31.9 A 17.993 17.993 0 0 0 267.672 28.597 A 22.61 22.61 0 0 0 263.101 26.1 Q 258.001 24 251.401 24 Q 246.301 24 241.601 25.65 A 21.595 21.595 0 0 0 239.83 26.36 A 17.61 17.61 0 0 0 233.901 30.65 A 11.329 11.329 0 0 0 231.435 35.109 A 14.273 14.273 0 0 0 230.901 39.1 A 12.457 12.457 0 0 0 232.261 44.906 A 13.708 13.708 0 0 0 235.451 48.9 Q 240.001 52.9 250.101 54.9 Q 255.707 55.907 258.808 57.326 A 11.269 11.269 0 0 1 260.851 58.5 Q 263.704 60.628 263.704 63.504 A 5.879 5.879 0 0 1 263.701 63.7 A 5.346 5.346 0 0 1 262.169 67.305 A 8.16 8.16 0 0 1 260.551 68.6 Q 258.406 69.936 254.902 70.333 A 28.549 28.549 0 0 1 251.701 70.5 A 23.903 23.903 0 0 1 249.317 70.384 A 19.557 19.557 0 0 1 243.351 68.85 A 31.693 31.693 0 0 1 243.274 68.816 Q 240.865 67.749 239.312 66.577 A 9.822 9.822 0 0 1 237.901 65.3 Q 236.501 63.8 234.551 63.55 Q 232.601 63.3 230.601 64.9 A 6.134 6.134 0 0 0 230.522 64.962 A 4.796 4.796 0 0 0 228.651 68.25 A 4.76 4.76 0 0 0 228.615 68.827 Q 228.615 69.771 229.011 70.613 A 4.984 4.984 0 0 0 229.901 71.9 Q 231.963 73.963 235.061 75.576 A 33.501 33.501 0 0 0 239.151 77.35 A 34.608 34.608 0 0 0 243.372 78.576 Z M 435.201 74.1 L 435.201 49.5 Q 435.201 45.113 433.956 41.969 A 13.002 13.002 0 0 0 433.101 40.2 A 13.557 13.557 0 0 0 429.431 36.052 A 13.068 13.068 0 0 0 427.451 34.85 A 16.827 16.827 0 0 0 422.339 33.307 A 21.616 21.616 0 0 0 419.301 33.1 A 17.924 17.924 0 0 0 414.595 33.7 A 15.547 15.547 0 0 0 411.701 34.8 A 15.034 15.034 0 0 0 408.037 37.337 A 13.35 13.35 0 0 0 406.301 39.35 A 11.048 11.048 0 0 0 404.305 45.555 A 13.474 13.474 0 0 0 404.301 45.9 L 398.001 45.9 Q 398.001 39.6 401.051 34.65 Q 404.101 29.7 409.401 26.8 A 23.806 23.806 0 0 1 419.27 23.971 A 28.736 28.736 0 0 1 421.301 23.9 A 27.656 27.656 0 0 1 428.604 24.834 A 23.616 23.616 0 0 1 433.651 26.85 Q 439.101 29.8 442.251 35.5 Q 445.216 40.866 445.39 48.536 A 42.554 42.554 0 0 1 445.401 49.5 L 445.401 74.1 A 5.474 5.474 0 0 1 445.093 75.969 A 4.797 4.797 0 0 1 443.951 77.75 A 4.894 4.894 0 0 1 440.573 79.195 A 6.47 6.47 0 0 1 440.301 79.2 A 5.474 5.474 0 0 1 438.432 78.892 A 4.797 4.797 0 0 1 436.651 77.75 A 4.894 4.894 0 0 1 435.206 74.372 A 6.47 6.47 0 0 1 435.201 74.1 Z M 205.101 74.1 L 205.101 45.5 Q 205.101 39.2 202.001 36.15 A 10.467 10.467 0 0 0 195.997 33.246 A 14.552 14.552 0 0 0 193.901 33.1 Q 188.701 33.1 185.351 36.7 Q 182.001 40.3 182.001 45.9 L 173.701 45.9 Q 173.701 39.4 176.501 34.45 Q 179.301 29.5 184.351 26.7 Q 189.401 23.9 195.901 23.9 A 22.128 22.128 0 0 1 201.59 24.606 A 18.467 18.467 0 0 1 206.001 26.4 A 16.847 16.847 0 0 1 212.456 33.007 A 20.554 20.554 0 0 1 212.851 33.75 Q 215.301 38.6 215.301 45.5 L 215.301 74.1 A 5.675 5.675 0 0 1 215.018 75.925 A 4.819 4.819 0 0 1 213.901 77.75 A 4.677 4.677 0 0 1 211.065 79.145 A 6.537 6.537 0 0 1 210.201 79.2 A 5.474 5.474 0 0 1 208.332 78.892 A 4.797 4.797 0 0 1 206.551 77.75 A 4.894 4.894 0 0 1 205.106 74.372 A 6.47 6.47 0 0 1 205.101 74.1 Z M 171.801 74.1 L 171.801 45.5 Q 171.801 39.2 168.701 36.15 A 10.467 10.467 0 0 0 162.697 33.246 A 14.552 14.552 0 0 0 160.601 33.1 A 12.301 12.301 0 0 0 156.121 33.891 A 11.185 11.185 0 0 0 152.001 36.7 Q 148.601 40.3 148.601 45.9 L 142.301 45.9 A 27.559 27.559 0 0 1 142.949 39.793 A 21.807 21.807 0 0 1 144.901 34.45 Q 147.501 29.5 152.101 26.7 Q 156.701 23.9 162.601 23.9 A 22.128 22.128 0 0 1 168.29 24.606 A 18.467 18.467 0 0 1 172.701 26.4 A 16.847 16.847 0 0 1 179.156 33.007 A 20.554 20.554 0 0 1 179.551 33.75 Q 182.001 38.6 182.001 45.5 L 182.001 74.1 A 5.675 5.675 0 0 1 181.718 75.925 A 4.819 4.819 0 0 1 180.601 77.75 A 4.677 4.677 0 0 1 177.765 79.145 A 6.537 6.537 0 0 1 176.901 79.2 A 5.474 5.474 0 0 1 175.032 78.892 A 4.797 4.797 0 0 1 173.251 77.75 A 4.894 4.894 0 0 1 171.806 74.372 A 6.47 6.47 0 0 1 171.801 74.1 Z M 343.553 78.556 A 31.428 31.428 0 0 0 351.401 79.5 A 33.906 33.906 0 0 0 355.451 79.264 A 26.847 26.847 0 0 0 365.701 75.95 Q 371.901 72.4 375.401 66.15 A 26.448 26.448 0 0 0 377.914 59.881 A 31.886 31.886 0 0 0 378.901 51.8 A 34.439 34.439 0 0 0 378.62 47.342 A 27.123 27.123 0 0 0 375.351 37.35 Q 371.801 31.1 365.601 27.55 A 25.936 25.936 0 0 0 359.393 25.002 A 30.795 30.795 0 0 0 351.401 24 A 33.906 33.906 0 0 0 347.35 24.236 A 26.847 26.847 0 0 0 337.101 27.55 Q 330.901 31.1 327.351 37.35 Q 323.801 43.6 323.801 51.8 A 34.072 34.072 0 0 0 324.023 55.735 A 27.211 27.211 0 0 0 327.351 66.15 Q 330.901 72.4 337.101 75.95 A 25.893 25.893 0 0 0 343.553 78.556 Z M 308.201 79.1 L 306.401 79.1 A 16.771 16.771 0 0 1 299.73 77.783 A 16.155 16.155 0 0 1 297.401 76.55 Q 293.401 74 291.101 69.6 A 20.341 20.341 0 0 1 288.896 61.889 A 24.813 24.813 0 0 1 288.801 59.7 L 288.801 12 A 5.644 5.644 0 0 1 289.05 10.286 A 4.598 4.598 0 0 1 290.201 8.4 A 4.726 4.726 0 0 1 293.19 7.029 A 6.414 6.414 0 0 1 293.801 7 A 5.644 5.644 0 0 1 295.515 7.249 A 4.598 4.598 0 0 1 297.401 8.4 A 4.726 4.726 0 0 1 298.772 11.389 A 6.414 6.414 0 0 1 298.801 12 L 298.801 59.7 A 12.008 12.008 0 0 0 299.218 62.938 A 9.43 9.43 0 0 0 301.001 66.4 A 7.871 7.871 0 0 0 302.872 68.098 A 6.445 6.445 0 0 0 306.401 69.1 L 309.801 69.1 A 3.902 3.902 0 0 1 312.692 70.331 A 5.076 5.076 0 0 1 312.851 70.5 A 4.844 4.844 0 0 1 314.01 72.972 A 6.734 6.734 0 0 1 314.101 74.1 A 4.765 4.765 0 0 1 313.714 76.044 A 4.597 4.597 0 0 1 312.451 77.7 A 5.766 5.766 0 0 1 309.805 78.95 A 8.143 8.143 0 0 1 308.201 79.1 Z M 394.101 74.1 L 394.101 29.5 A 5.926 5.926 0 0 1 394.322 27.841 A 4.556 4.556 0 0 1 395.551 25.8 A 4.939 4.939 0 0 1 398.728 24.417 A 6.549 6.549 0 0 1 399.201 24.4 A 6.13 6.13 0 0 1 400.853 24.612 A 4.59 4.59 0 0 1 402.901 25.8 A 4.702 4.702 0 0 1 404.224 28.471 A 6.626 6.626 0 0 1 404.301 29.5 L 404.301 74.1 A 5.675 5.675 0 0 1 404.018 75.925 A 4.819 4.819 0 0 1 402.901 77.75 A 4.677 4.677 0 0 1 400.065 79.145 A 6.537 6.537 0 0 1 399.201 79.2 A 5.474 5.474 0 0 1 397.332 78.892 A 4.797 4.797 0 0 1 395.551 77.75 A 4.894 4.894 0 0 1 394.106 74.372 A 6.47 6.47 0 0 1 394.101 74.1 Z M 138.401 74.1 L 138.401 29.6 A 5.926 5.926 0 0 1 138.622 27.941 A 4.556 4.556 0 0 1 139.851 25.9 A 4.939 4.939 0 0 1 143.028 24.517 A 6.549 6.549 0 0 1 143.501 24.5 A 6.13 6.13 0 0 1 145.153 24.712 A 4.59 4.59 0 0 1 147.201 25.9 A 4.702 4.702 0 0 1 148.524 28.571 A 6.626 6.626 0 0 1 148.601 29.6 L 148.601 74.1 A 5.675 5.675 0 0 1 148.318 75.925 A 4.819 4.819 0 0 1 147.201 77.75 A 4.677 4.677 0 0 1 144.365 79.145 A 6.537 6.537 0 0 1 143.501 79.2 A 5.474 5.474 0 0 1 141.632 78.892 A 4.797 4.797 0 0 1 139.851 77.75 A 4.894 4.894 0 0 1 138.406 74.372 A 6.47 6.47 0 0 1 138.401 74.1 Z M 351.401 70.5 A 19.159 19.159 0 0 0 356.658 69.803 A 16.27 16.27 0 0 0 360.601 68.1 Q 364.601 65.7 366.851 61.5 Q 369.101 57.3 369.101 51.8 A 22.923 22.923 0 0 0 368.502 46.461 A 18.643 18.643 0 0 0 366.851 42.05 Q 364.601 37.8 360.601 35.4 Q 356.601 33 351.401 33 A 19.159 19.159 0 0 0 346.143 33.698 A 16.27 16.27 0 0 0 342.201 35.4 Q 338.201 37.8 335.901 42.05 A 19.044 19.044 0 0 0 333.783 48.805 A 24.013 24.013 0 0 0 333.601 51.8 Q 333.601 57.3 335.901 61.5 Q 338.201 65.7 342.201 68.1 Q 346.201 70.5 351.401 70.5 Z M 64.701 43.8 L 64.701 67.7 L 54.701 65.7 L 54.701 47.8 L 40.901 47.8 A 6.167 6.167 0 0 1 39.051 47.533 A 5.139 5.139 0 0 1 37.201 46.5 A 4.148 4.148 0 0 1 35.71 43.508 A 5.125 5.125 0 0 1 35.701 43.2 A 4.342 4.342 0 0 1 36.099 41.324 A 4.32 4.32 0 0 1 37.201 39.9 A 5.285 5.285 0 0 1 40.23 38.632 A 6.931 6.931 0 0 1 40.901 38.6 L 59.601 38.6 A 5.926 5.926 0 0 1 61.26 38.822 A 4.556 4.556 0 0 1 63.301 40.05 Q 64.701 41.5 64.701 43.8 Z M 307.301 35 L 284.201 35 Q 282.101 35 280.801 33.8 A 3.894 3.894 0 0 1 279.504 30.968 A 4.871 4.871 0 0 1 279.501 30.8 A 4.981 4.981 0 0 1 279.699 29.36 A 3.873 3.873 0 0 1 280.801 27.6 A 4.438 4.438 0 0 1 283.053 26.501 A 6.282 6.282 0 0 1 284.201 26.4 L 307.301 26.4 Q 309.401 26.4 310.701 27.6 A 3.977 3.977 0 0 1 311.962 30.136 A 5.572 5.572 0 0 1 312.001 30.8 A 4.077 4.077 0 0 1 311.636 32.538 A 4.014 4.014 0 0 1 310.701 33.8 A 4.438 4.438 0 0 1 308.448 34.9 A 6.282 6.282 0 0 1 307.301 35 Z" vector-effect="non-scaling-stroke"/></g></svg>
