<svg id="a2f2d764-0bfa-460a-b49e-cee43e447c06" data-name="Warstwa 1" xmlns="http://www.w3.org/2000/svg" viewBox="0 0 377 253"><rect width="377" height="253" fill="#fff"/><path d="M233.25,230.8562,305.2592,35.88A16.8246,16.8246,0,0,0,287.2558,13.374L57.0721,44.0256a16.8246,16.8246,0,0,0-9.9007,28.3452L205.346,236.6951A16.8246,16.8246,0,0,0,233.25,230.8562Z" fill="#783bff" fill-rule="evenodd" opacity="0.15"/><g id="fd1f6ab6-e40a-419b-9629-c97adcac1bef" data-name="Path"><path d="M299.1365,113.1294h4.2964c2.8663,0,5.1184,2.4568,5.1184,5.7326v.819L299.3968,185.57a5.8686,5.8686,0,0,1-5.5279,4.7089h-5.7032" fill="#2f3133"/></g><path d="M298.2207,113.1293h-57.778l-7.8637-.0856a6.0375,6.0375,0,0,0-6.0256,5.0715l-6.6127,40.8127-3.4373,25.0044v.6142c0,3.2757,2.2517,5.7326,5.1185,5.7326h67.0348a5.8688,5.8688,0,0,0,5.5282-4.709l9.1543-65.8891v-.819C303.3392,115.5862,301.0876,113.1293,298.2207,113.1293Z" fill="#ffa172"/><path d="M254.8111,65.3993a6.272,6.272,0,0,0-6.1739-6.4753H117.6251a6.1626,6.1626,0,0,0-6.1739,5.2706L97.3029,152.5231a4.0914,4.0914,0,0,0,4.0359,4.74l136.7752.1421A3.9846,3.9846,0,0,0,242.06,154l12.7509-87.5466Z" fill="#2f3133"/><g id="ad50c035-851f-402e-a2cf-db00a4c005c9" data-name="Path"><path d="M252.4443,167.0245c-2.0519-.253-3.6463-2.5891-3.4148-4.9059l3.684-24.9676a3.4064,3.4064,0,0,1,.9785-2.1875,4.4319,4.4319,0,0,1,2.9757-1.5826,3.62,3.62,0,0,1,2.69.9431l16.9,14.2192.05.1475a3.2917,3.2917,0,0,0,.4575.8268,4.6339,4.6339,0,0,1,.3316.5361,4.2306,4.2306,0,0,1-1.9077,5.6627L254.75,166.55A4.1074,4.1074,0,0,1,252.4443,167.0245Z" fill="#ffbc9a"/></g><polygon points="238.114 157.405 218.83 167.025 220.221 157.016 238.114 157.405" fill="#2f3133"/><g id="a3dc2578-ba3d-44d5-9104-5aa2b0bf5569" data-name="Path"><path d="M152.65,58.4158a99.7409,99.7409,0,0,1-3.96-23.9084,31.2454,31.2454,0,0,1,7.552-22.0938L80.4442,11.1423a30.8539,30.8539,0,0,0-7.552,22.0938,113.593,113.593,0,0,0,3.96,23.9084,79.5134,79.5134,0,0,1,3.2266,23.9174C79.26,94.0283,72.5567,105.6,66.0921,116.68l42.4592.7121" fill="#ff4d4d"/></g><rect x="111.1478" y="-1.5458" width="1.3167" height="56.2465" transform="translate(82.0763 137.5869) rotate(-88.3789)" fill="#ffbc9a"/><rect x="109.8219" y="11.979" width="1.3167" height="56.2478" transform="translate(67.2679 149.4045) rotate(-88.3789)" fill="#ffbc9a"/><path d="M106.6378,53.0933a6.7367,6.7367,0,0,0-.5771,1.3161l-22.6483-.6465.0462-1.3161Z" fill="#ffbc9a"/><path d="M139.6759,54.04l-.0462,1.3156-33.569-.9464a6.7367,6.7367,0,0,1,.5771-1.3161Z" fill="#fff"/><polygon points="103.083 67.8 102.806 69.093 86.321 68.331 86.368 67.038 103.083 67.8" fill="#ffbc9a"/><polygon points="109.455 68.1 109.386 69.393 102.806 69.093 103.083 67.8 109.455 68.1" fill="#fff"/><polygon points="99.943 82.437 99.665 83.73 86.575 83.199 86.644 81.883 99.943 82.437" fill="#ffbc9a"/><polygon points="105.738 82.668 105.668 83.984 99.665 83.73 99.943 82.437 105.738 82.668" fill="#fff"/><polygon points="97.103 95.69 96.826 96.982 84.197 96.451 84.243 95.135 97.103 95.69" fill="#ffbc9a"/><polygon points="103.337 95.943 103.29 97.26 96.826 96.982 97.103 95.69 103.337 95.943" fill="#fff"/><g id="a9e10534-df23-4050-9237-76ec12f67657" data-name="Path"><path d="M152.6513,58.4266l-44.097,58.9651-16.0456-.2773,4.317-20.1321L97.103,95.69l2.5624-11.96.2773-1.293,2.8628-13.344.2774-1.293,2.6317-12.2133a9.9794,9.9794,0,0,1,.3461-1.1775,6.7367,6.7367,0,0,1,.5771-1.3161,9.3755,9.3755,0,0,1,8.381-4.8942l35.37.6465C150.9891,52.0545,151.7275,55.2634,152.6513,58.4266Z" fill="#2f3133"/></g><g id="be47c4bc-76ef-4de1-a3db-1159c2cae030" data-name="Path"><path d="M249.8905,70.9349l-11.7876,80.467a3.8752,3.8752,0,0,1-3.8381,3.3122l-133.0379-.1382a3.98,3.98,0,0,1-3.9255-4.6106l12.4876-77.807" fill="#783bff"/></g><g id="f5111d3a-7154-4c7e-85d6-c90f7c49929d" data-name="Path"><path d="M109.8913,71.5207l1.1718-7.47a5.9945,5.9945,0,0,1,6.0054-5.1266H244.5a6.1008,6.1008,0,0,1,6.0054,6.2984v1.0253l-.6152,4.6872Z" fill="#f29e38"/></g><g id="e4ad7141-b352-42a6-bbfb-d64739cc3ebc" data-name="Path"><path d="M109.8913,71.5207l1.1718-7.47a5.9945,5.9945,0,0,1,6.0054-5.1266H244.5a6.1008,6.1008,0,0,1,6.0054,6.2984v1.0253l-.861,6.56Z" fill="#783bff"/></g><path d="M114.437,83.0287l-10.0222,58.8807a4.3265,4.3265,0,0,0,4.2651,5.0525l118.3916.3751a5.3725,5.3725,0,0,0,4.8747-4.116l9.2894-58.8289a4.3265,4.3265,0,0,0-4.2793-4.9639H118.7022A4.3266,4.3266,0,0,0,114.437,83.0287Z" fill="#9e72ff"/><circle cx="149.1307" cy="97.624" r="11.3018" fill="#ffa172"/><path d="M238.2915,103.0188c-35.1648-1.6816-72.2734,15.3589-92.66,44.06l80.921.258a5.5919,5.5919,0,0,0,5.5242-4.7247Z" fill="#783bff"/><path d="M226.6391,147.7338l-78.8666-.2532.0037-.9569,78.8648.2533a5.0864,5.0864,0,0,0,5.0486-4.3208l6.2157-39.5931.9457.1477-6.2158,39.5931A6.0393,6.0393,0,0,1,226.6391,147.7338Z" fill="#fff"/><path d="M164.9854,147.2759c-13.73-19.5489-32.4149-29.8368-55.5352-30.5778l.03-.9568c23.438.7522,42.3758,11.1765,56.2883,30.9852Z" fill="#fff"/><polygon points="249.643 73.363 107.774 72.822 107.778 71.865 249.798 72.406 249.643 73.363" fill="#2f3133"/><ellipse cx="120.0689" cy="65.3185" rx="3.3474" ry="2.8086" transform="matrix(0.5255, -0.8508, 0.8508, 0.5255, 1.3994, 133.1461)" fill="none" stroke="#2f3133" stroke-miterlimit="10" stroke-width="0.5"/><ellipse cx="128.5075" cy="65.3185" rx="3.3474" ry="2.8086" transform="translate(5.4034 140.3256) rotate(-58.2974)" fill="none" stroke="#2f3133" stroke-miterlimit="10" stroke-width="0.5"/><ellipse cx="136.946" cy="65.3185" rx="3.3474" ry="2.8086" transform="translate(9.4074 147.505) rotate(-58.2974)" fill="none" stroke="#2f3133" stroke-miterlimit="10" stroke-width="0.5"/></svg>