<svg id="b288608f-79a1-455c-8f09-8a4c4b489288" data-name="Warstwa 1" xmlns="http://www.w3.org/2000/svg" viewBox="0 0 377 253"><rect width="377" height="253" fill="#fff"/><path d="M333.8925,213.9978,236.5245,22.9491A17.6629,17.6629,0,0,0,209.8508,17.1L33.4909,156.1655a17.6629,17.6629,0,0,0,7.6413,31.2224L314.86,239.3708A17.6628,17.6628,0,0,0,333.8925,213.9978Z" fill="#783bff" fill-rule="evenodd" opacity="0.15"/><path d="M260.0478,173.0275V70.7176c26.9118-.8653,53.1518-2.4542,78.5249-4.7045a10.732,10.732,0,0,1,11.67,10.6968l.006,90.5868a10.7394,10.7394,0,0,1-11.4179,10.7186Z" fill="#2f3133"/><path d="M136.0991,172.7785V70.4687c-26.9118-.8653-53.1518-2.4542-78.5249-4.7046a10.732,10.732,0,0,0-11.67,10.6968l-.006,90.5869a10.7394,10.7394,0,0,0,11.4179,10.7186Z" fill="#2f3133"/><path d="M248.7532,173.0275V70.7176c26.9117-.8653,53.1517-2.4542,78.5248-4.7045a10.732,10.732,0,0,1,11.67,10.6968l.0061,90.5868a10.7394,10.7394,0,0,1-11.4179,10.7186Z" fill="#ffa172"/><path d="M148.4989,172.3658V70.0559c-26.9118-.8653-53.1518-2.4542-78.5249-4.7046a10.7321,10.7321,0,0,0-11.67,10.6969l-.006,90.5868a10.7394,10.7394,0,0,0,11.4179,10.7186Z" fill="#783bff"/><g opacity="0.86"><path d="M304.6546,148.2784H269.46a9.67,9.67,0,0,1-9.81-11.7462h0a14.6912,14.6912,0,0,1,13.8744-11.7462h35.0406a9.7662,9.7662,0,0,1,9.8869,11.7462h0A14.5193,14.5193,0,0,1,304.6546,148.2784Z" fill="#ffbc9a"/><path d="M290.853,117.5661h0c-6.7138,0-11.2648-5.468-10.1134-12.1512h0c1.1514-6.6831,7.5616-12.1512,14.2447-12.1512h0c6.6831,0,11.2341,5.4681,10.1133,12.1512h0A15.0434,15.0434,0,0,1,290.853,117.5661Z" fill="#ffbc9a"/></g><polygon points="259.003 70.27 277.275 174.797 256.159 173.431 259.003 70.27" fill="#2f3133"/><path d="M92.493,152.5336c-.3133.0259-.6246.0464-.9363.06C82.544,153.0093,73.775,148.39,69.7362,141.1l6.9265-3.8367c2.6136,4.7194,8.4521,7.7025,14.5293,7.4224,5.6545-.2465,11.5753-3.203,16.2107-8.0725.1356-.1424.2686-.2859.4015-.43a33.51,33.51,0,0,1-19.1608-6.78c-4.7566-3.6135-7.8625-8.0312-8.9834-12.775-1.9907-8.4178,2.8759-17.8932,11.08-21.57,7.6042-3.4117,17.1129-1.7817,23.6535,4.0514a26.8323,26.8323,0,0,1,8.4719,22.0342q-.079,1.0617-.2361,2.12a20.2427,20.2427,0,0,0,7.0763-12.216l7.8342,1.1438c-1.4569,9.9774-8.9671,18.8487-18.8115,22.33a37.6024,37.6024,0,0,1-5.5918,7.5506C107.353,148.1465,99.8773,151.9238,92.493,152.5336Zm5.522-51.2683a12.3575,12.3575,0,0,0-4.0368,1.0167c-4.7741,2.14-7.74,7.7584-6.6124,12.5249.8751,3.7084,3.7828,6.5559,6.0674,8.2919a25.0238,25.0238,0,0,0,19.7536,4.7536,23.65,23.65,0,0,0,1.7839-7.3027,19.1372,19.1372,0,0,0-5.8455-15.5309A15.1293,15.1293,0,0,0,98.015,101.2653Z" fill="#bb9dff"/><polygon points="137.405 69.347 119.373 174.452 140.015 172.554 137.405 69.347" fill="#2f3133"/><path d="M198.676,178.512c12.33-.13,35.4813.64,49.4889,1.1651a11.2385,11.2385,0,0,0,11.6586-11.2333V75.0326a11.24,11.24,0,0,0-11.4784-11.2385c-12.1338.2577-31.1174.6159-42.931.6159-16.0317,0-42.34-.7912-57.4308-1.2936a11.24,11.24,0,0,0-11.6144,11.2348v94.5659a11.2386,11.2386,0,0,0,11.6912,11.232C162.6213,179.562,187.0008,178.6353,198.676,178.512Z" fill="#ff4d4d"/><path d="M184.4135,146.7435a28.2805,28.2805,0,0,1,16.3518-53.67l-.1741,1.0215a27.2437,27.2437,0,0,0-15.7535,51.7033Z" fill="#f2f2f2"/><path d="M196.0787,149.2434q-.9788,0-1.9644-.0668a28.699,28.699,0,0,1-9.7013-2.4331l.4241-.9456a27.6255,27.6255,0,0,0,9.3475,2.3441,27.2494,27.2494,0,0,0,24.6632-42.0684,27.3389,27.3389,0,0,0-18.2566-11.979l.1741-1.0215a28.284,28.284,0,0,1,10.702,51.5779A28.0191,28.0191,0,0,1,196.0787,149.2434Z" fill="#f2f2f2"/><path d="M173.8978,143.1577c-4.0241.0006-6.9644-1.0847-8.2724-3.35-1.3241-2.2935-.7911-5.5142,1.54-9.3141l.8838.5427c-2.1209,3.4551-2.6483,6.3094-1.5261,8.2531,3.2136,5.5663,19.3514,2.5207,35.2391-6.6516,7.8983-4.56,14.679-9.9488,19.0928-15.174,4.2376-5.0162,5.8-9.3966,4.2867-12.018-.9875-1.7109-3.2653-2.6792-6.5863-2.8007l.0375-1.0356c3.6966.1346,6.2715,1.2821,7.4468,3.3179,1.7706,3.0664.2106,7.7566-4.3931,13.2055-4.4892,5.3143-11.3671,10.7845-19.3661,15.4028C191.47,139.777,180.9983,143.1572,173.8978,143.1577Z" fill="#f2f2f2"/><path d="M186.749,147.239a6.0326,6.0326,0,0,1-2.3386-.4545l.3989-.9567c4.1779,1.7382,10.6028-2.7434,16.0755-11.1833a10.153,10.153,0,0,1,3.1666-18.7476,9.9453,9.9453,0,0,1,4.7585.2156c2.502-10.4134,1.2609-18.582-3.1357-20.4124l.3978-.9566c4.9656,2.0667,6.4168,10.9712,3.6116,22.1586l-.1382.5513-.536-.1883a8.9563,8.9563,0,0,0-4.7575-.3508,9.259,9.259,0,0,0-7.3618,8.2936,9.129,9.129,0,0,0,4.9665,8.7866l.5072.2582-.3047.4808C197.0531,142.6359,191.3136,147.239,186.749,147.239Z" fill="#f2f2f2"/><polygon points="243.73 163.994 146.782 163.994 146.782 162.958 242.693 162.958 242.693 73.416 243.73 73.416 243.73 163.994" fill="#2f3133"/><polygon points="153.057 167.508 152.021 167.508 152.021 76.93 248.969 76.93 248.969 77.967 153.057 77.967 153.057 167.508" fill="#2f3133"/><path d="M333.8925,213.9978,236.5245,22.9491A17.6629,17.6629,0,0,0,209.8508,17.1L33.4909,156.1655a17.6629,17.6629,0,0,0,7.6413,31.2224L314.86,239.3708A17.6628,17.6628,0,0,0,333.8925,213.9978Z" fill="#783bff" fill-rule="evenodd" opacity="0.15"/><path d="M260.0478,173.0275V70.7176c26.9118-.8653,53.1518-2.4542,78.5249-4.7045a10.732,10.732,0,0,1,11.67,10.6968l.006,90.5868a10.7394,10.7394,0,0,1-11.4179,10.7186Z" fill="#2f3133"/><path d="M136.0991,172.7785V70.4687c-26.9118-.8653-53.1518-2.4542-78.5249-4.7046a10.732,10.732,0,0,0-11.67,10.6968l-.006,90.5869a10.7394,10.7394,0,0,0,11.4179,10.7186Z" fill="#2f3133"/><path d="M248.7532,173.0275V70.7176c26.9117-.8653,53.1517-2.4542,78.5248-4.7045a10.732,10.732,0,0,1,11.67,10.6968l.0061,90.5868a10.7394,10.7394,0,0,1-11.4179,10.7186Z" fill="#ffa172"/><path d="M148.4989,172.3658V70.0559c-26.9118-.8653-53.1518-2.4542-78.5249-4.7046a10.7321,10.7321,0,0,0-11.67,10.6969l-.006,90.5868a10.7394,10.7394,0,0,0,11.4179,10.7186Z" fill="#783bff"/><g opacity="0.86"><path d="M304.6546,148.2784H269.46a9.67,9.67,0,0,1-9.81-11.7462h0a14.6912,14.6912,0,0,1,13.8744-11.7462h35.0406a9.7662,9.7662,0,0,1,9.8869,11.7462h0A14.5193,14.5193,0,0,1,304.6546,148.2784Z" fill="#ffbc9a"/><path d="M290.853,117.5661h0c-6.7138,0-11.2648-5.468-10.1134-12.1512h0c1.1514-6.6831,7.5616-12.1512,14.2447-12.1512h0c6.6831,0,11.2341,5.4681,10.1133,12.1512h0A15.0434,15.0434,0,0,1,290.853,117.5661Z" fill="#ffbc9a"/></g><polygon points="259.003 70.27 277.275 174.797 256.159 173.431 259.003 70.27" fill="#2f3133"/><path d="M92.493,152.5336c-.3133.0259-.6246.0464-.9363.06C82.544,153.0093,73.775,148.39,69.7362,141.1l6.9265-3.8367c2.6136,4.7194,8.4521,7.7025,14.5293,7.4224,5.6545-.2465,11.5753-3.203,16.2107-8.0725.1356-.1424.2686-.2859.4015-.43a33.51,33.51,0,0,1-19.1608-6.78c-4.7566-3.6135-7.8625-8.0312-8.9834-12.775-1.9907-8.4178,2.8759-17.8932,11.08-21.57,7.6042-3.4117,17.1129-1.7817,23.6535,4.0514a26.8323,26.8323,0,0,1,8.4719,22.0342q-.079,1.0617-.2361,2.12a20.2427,20.2427,0,0,0,7.0763-12.216l7.8342,1.1438c-1.4569,9.9774-8.9671,18.8487-18.8115,22.33a37.6024,37.6024,0,0,1-5.5918,7.5506C107.353,148.1465,99.8773,151.9238,92.493,152.5336Zm5.522-51.2683a12.3575,12.3575,0,0,0-4.0368,1.0167c-4.7741,2.14-7.74,7.7584-6.6124,12.5249.8751,3.7084,3.7828,6.5559,6.0674,8.2919a25.0238,25.0238,0,0,0,19.7536,4.7536,23.65,23.65,0,0,0,1.7839-7.3027,19.1372,19.1372,0,0,0-5.8455-15.5309A15.1293,15.1293,0,0,0,98.015,101.2653Z" fill="#bb9dff"/><polygon points="137.405 69.347 119.373 174.452 140.015 172.554 137.405 69.347" fill="#2f3133"/><path d="M198.676,178.512c12.33-.13,35.4813.64,49.4889,1.1651a11.2385,11.2385,0,0,0,11.6586-11.2333V75.0326a11.24,11.24,0,0,0-11.4784-11.2385c-12.1338.2577-31.1174.6159-42.931.6159-16.0317,0-42.34-.7912-57.4308-1.2936a11.24,11.24,0,0,0-11.6144,11.2348v94.5659a11.2386,11.2386,0,0,0,11.6912,11.232C162.6213,179.562,187.0008,178.6353,198.676,178.512Z" fill="#ff4d4d"/><path d="M184.4135,146.7435a28.2805,28.2805,0,0,1,16.3518-53.67l-.1741,1.0215a27.2437,27.2437,0,0,0-15.7535,51.7033Z" fill="#f2f2f2"/><path d="M196.0787,149.2434q-.9788,0-1.9644-.0668a28.699,28.699,0,0,1-9.7013-2.4331l.4241-.9456a27.6255,27.6255,0,0,0,9.3475,2.3441,27.2494,27.2494,0,0,0,24.6632-42.0684,27.3389,27.3389,0,0,0-18.2566-11.979l.1741-1.0215a28.284,28.284,0,0,1,10.702,51.5779A28.0191,28.0191,0,0,1,196.0787,149.2434Z" fill="#f2f2f2"/><path d="M173.8978,143.1577c-4.0241.0006-6.9644-1.0847-8.2724-3.35-1.3241-2.2935-.7911-5.5142,1.54-9.3141l.8838.5427c-2.1209,3.4551-2.6483,6.3094-1.5261,8.2531,3.2136,5.5663,19.3514,2.5207,35.2391-6.6516,7.8983-4.56,14.679-9.9488,19.0928-15.174,4.2376-5.0162,5.8-9.3966,4.2867-12.018-.9875-1.7109-3.2653-2.6792-6.5863-2.8007l.0375-1.0356c3.6966.1346,6.2715,1.2821,7.4468,3.3179,1.7706,3.0664.2106,7.7566-4.3931,13.2055-4.4892,5.3143-11.3671,10.7845-19.3661,15.4028C191.47,139.777,180.9983,143.1572,173.8978,143.1577Z" fill="#f2f2f2"/><path d="M186.749,147.239a6.0326,6.0326,0,0,1-2.3386-.4545l.3989-.9567c4.1779,1.7382,10.6028-2.7434,16.0755-11.1833a10.153,10.153,0,0,1,3.1666-18.7476,9.9453,9.9453,0,0,1,4.7585.2156c2.502-10.4134,1.2609-18.582-3.1357-20.4124l.3978-.9566c4.9656,2.0667,6.4168,10.9712,3.6116,22.1586l-.1382.5513-.536-.1883a8.9563,8.9563,0,0,0-4.7575-.3508,9.259,9.259,0,0,0-7.3618,8.2936,9.129,9.129,0,0,0,4.9665,8.7866l.5072.2582-.3047.4808C197.0531,142.6359,191.3136,147.239,186.749,147.239Z" fill="#f2f2f2"/><polygon points="243.73 163.994 146.782 163.994 146.782 162.958 242.693 162.958 242.693 73.416 243.73 73.416 243.73 163.994" fill="#2f3133"/><polygon points="153.057 167.508 152.021 167.508 152.021 76.93 248.969 76.93 248.969 77.967 153.057 77.967 153.057 167.508" fill="#2f3133"/></svg>