<svg id="b5bd0ed2-2584-47cd-b44d-cb738b664201" data-name="Warstwa 1" xmlns="http://www.w3.org/2000/svg" viewBox="0 0 377 253"><rect width="377" height="253" fill="#fff"/><path d="M70.5275,23.204,30.65,223.2288a16.8,16.8,0,0,0,20.008,19.7086L333.41,182.1217c15.0563-3.2384,18.183-23.3408,4.8215-30.9993L95.3571,11.9134A16.8,16.8,0,0,0,70.5275,23.204Z" fill="#783bff" fill-rule="evenodd" opacity="0.15"/><path d="M116.8044,68.0874h94.7925c7.76,0,13.1953,6.2909,12.1395,14.0511L210.84,176.9311a16.6428,16.6428,0,0,1-15.997,14.0511H99.82" fill="#2f3133"/><path d="M245.7957,124.7561c-26.4643,0-50.8911,21.0577-54.5587,47.034a46.0273,46.0273,0,0,0-.1795,11.7441c0,7.1085,5.0991,15.6028,5.0991,15.6028,6.8517,11.9147,19.7052,19.6867,35.48,19.6867,25.98,0,50.4067-21.0577,54.5586-47.0336S272.26,124.7561,245.7957,124.7561Z" fill="#2f3133"/><path d="M240.059,124.7561c-24.7941,0-47.6792,21.0577-51.1152,47.034a49.0972,49.0972,0,0,0-.1683,11.7441c0,7.1085,4.7773,15.6028,4.7773,15.6028a36.99,36.99,0,0,0,33.2409,19.6867c24.34,0,47.2253-21.0577,51.1152-47.0336S264.8529,124.7561,240.059,124.7561Z" fill="#ff4d4d"/><path d="M247.9629,189.0082H213.864a3.3017,3.3017,0,0,1-3.34-3.8939h0a4.6329,4.6329,0,0,1,4.4387-3.8939h34.1091a3.2962,3.2962,0,0,1,3.3344,3.8939h0A4.6417,4.6417,0,0,1,247.9629,189.0082Z" fill="#f294ff"/><path d="M233.9025,175.2851l14.1115-19.6232a1.8854,1.8854,0,0,0-1.3735-3.157h-22.659a2.4069,2.4069,0,0,0-2.2687,3.157l8.5475,19.6232C230.8708,176.6882,232.8941,176.6882,233.9025,175.2851Z" fill="#f294ff"/><path d="M214.57,82.1327l-7.6143,56.0044a55.5431,55.5431,0,0,0-18.0192,33.6606,48.7971,48.7971,0,0,0-.1548,11.7314,25.3437,25.3437,0,0,0,1.12,6.839,15.192,15.192,0,0,1-4.2377.62H90.6408a11.9694,11.9694,0,0,1-12.1275-14.0572L91.64,82.1327a16.6614,16.6614,0,0,1,15.9864-14.04h94.7985C210.1768,68.0931,215.62,74.3806,214.57,82.1327Z" fill="#783bff"/><path d="M118.0737,102.9615l-7.3359,53.1562a4.1835,4.1835,0,0,0,4.2415,4.9095h41.3414c4.0912,0,7.0365-4.6944,4.97-7.92L127.2816,99.9511C124.9216,96.2566,118.7192,98.2845,118.0737,102.9615Z" fill="none" stroke="#ccb5ff" stroke-linecap="round" stroke-miterlimit="10"/><path d="M180.57,114.4249a15.9985,15.9985,0,0,1-15.3676,13.5076c-7.4688,0-12.6941-6.0475-11.671-13.5076a16.0064,16.0064,0,0,1,15.3676-13.5076C176.3628,100.9173,181.588,106.9649,180.57,114.4249Z" fill="none" stroke="#ccb5ff" stroke-linecap="round" stroke-miterlimit="10"/><polygon points="94.635 177.16 93.695 177.03 106.251 86.161 202.378 86.161 202.378 87.11 107.078 87.11 94.635 177.16" fill="none" stroke="#ccb5ff" stroke-linecap="round" stroke-miterlimit="10"/><polygon points="187.013 172.909 90.722 172.909 90.722 171.96 186.184 171.96 198.463 81.911 199.403 82.039 187.013 172.909" fill="none" stroke="#ccb5ff" stroke-linecap="round" stroke-miterlimit="10"/><path d="M206.9554,138.1371l-5.2885,38.7941a16.8132,16.8132,0,0,1-11.7659,13.4369,25.3437,25.3437,0,0,1-1.12-6.839,48.7971,48.7971,0,0,1,.1548-11.7314A55.5431,55.5431,0,0,1,206.9554,138.1371Z" fill="#f294ff"/><path d="M76.6784,89.0589H40.044a3.5471,3.5471,0,0,1-3.5877-4.1834h0A4.9774,4.9774,0,0,1,41.225,80.692H77.87a3.5413,3.5413,0,0,1,3.5823,4.1835h0A4.9868,4.9868,0,0,1,76.6784,89.0589Z" fill="#2f3133"/><path d="M61.5725,74.3155,76.7333,53.2331c1.0848-1.5074.265-3.3917-1.4756-3.3917H50.9139a2.5858,2.5858,0,0,0-2.4374,3.3917L57.66,74.3155C58.3154,75.8229,60.4892,75.8229,61.5725,74.3155Z" fill="#2f3133"/><path d="M73.8918,86.3447H39.7928a3.3016,3.3016,0,0,1-3.3394-3.8939h0a4.6329,4.6329,0,0,1,4.4387-3.8939H75.0012a3.2962,3.2962,0,0,1,3.3343,3.8939h0A4.6415,4.6415,0,0,1,73.8918,86.3447Z" fill="#ffa172"/><path d="M59.8313,72.6217,73.9429,52.9984a1.8854,1.8854,0,0,0-1.3735-3.157H49.91a2.4068,2.4068,0,0,0-2.2687,3.157l8.5475,19.6233C56.8,74.0248,58.823,74.0248,59.8313,72.6217Z" fill="#ffa172"/><path d="M70.5275,23.204,30.65,223.2288a16.8,16.8,0,0,0,20.008,19.7086L333.41,182.1217c15.0563-3.2384,18.183-23.3408,4.8215-30.9993L95.3571,11.9134A16.8,16.8,0,0,0,70.5275,23.204Z" fill="#783bff" fill-rule="evenodd" opacity="0.15"/><path d="M116.8044,68.0874h94.7925c7.76,0,13.1953,6.2909,12.1395,14.0511L210.84,176.9311a16.6428,16.6428,0,0,1-15.997,14.0511H99.82" fill="#2f3133"/><path d="M245.7957,124.7561c-26.4643,0-50.8911,21.0577-54.5587,47.034a46.0273,46.0273,0,0,0-.1795,11.7441c0,7.1085,5.0991,15.6028,5.0991,15.6028,6.8517,11.9147,19.7052,19.6867,35.48,19.6867,25.98,0,50.4067-21.0577,54.5586-47.0336S272.26,124.7561,245.7957,124.7561Z" fill="#2f3133"/><path d="M240.059,124.7561c-24.7941,0-47.6792,21.0577-51.1152,47.034a49.0972,49.0972,0,0,0-.1683,11.7441c0,7.1085,4.7773,15.6028,4.7773,15.6028a36.99,36.99,0,0,0,33.2409,19.6867c24.34,0,47.2253-21.0577,51.1152-47.0336S264.8529,124.7561,240.059,124.7561Z" fill="#ff4d4d"/><path d="M247.9629,189.0082H213.864a3.3017,3.3017,0,0,1-3.34-3.8939h0a4.6329,4.6329,0,0,1,4.4387-3.8939h34.1091a3.2962,3.2962,0,0,1,3.3344,3.8939h0A4.6417,4.6417,0,0,1,247.9629,189.0082Z" fill="#f294ff"/><path d="M233.9025,175.2851l14.1115-19.6232a1.8854,1.8854,0,0,0-1.3735-3.157h-22.659a2.4069,2.4069,0,0,0-2.2687,3.157l8.5475,19.6232C230.8708,176.6882,232.8941,176.6882,233.9025,175.2851Z" fill="#f294ff"/><path d="M214.57,82.1327l-7.6143,56.0044a55.5431,55.5431,0,0,0-18.0192,33.6606,48.7971,48.7971,0,0,0-.1548,11.7314,25.3437,25.3437,0,0,0,1.12,6.839,15.192,15.192,0,0,1-4.2377.62H90.6408a11.9694,11.9694,0,0,1-12.1275-14.0572L91.64,82.1327a16.6614,16.6614,0,0,1,15.9864-14.04h94.7985C210.1768,68.0931,215.62,74.3806,214.57,82.1327Z" fill="#783bff"/><path d="M118.0737,102.9615l-7.3359,53.1562a4.1835,4.1835,0,0,0,4.2415,4.9095h41.3414c4.0912,0,7.0365-4.6944,4.97-7.92L127.2816,99.9511C124.9216,96.2566,118.7192,98.2845,118.0737,102.9615Z" fill="none" stroke="#ccb5ff" stroke-linecap="round" stroke-miterlimit="10"/><path d="M180.57,114.4249a15.9985,15.9985,0,0,1-15.3676,13.5076c-7.4688,0-12.6941-6.0475-11.671-13.5076a16.0064,16.0064,0,0,1,15.3676-13.5076C176.3628,100.9173,181.588,106.9649,180.57,114.4249Z" fill="none" stroke="#ccb5ff" stroke-linecap="round" stroke-miterlimit="10"/><polygon points="94.635 177.16 93.695 177.03 106.251 86.161 202.378 86.161 202.378 87.11 107.078 87.11 94.635 177.16" fill="none" stroke="#ccb5ff" stroke-linecap="round" stroke-miterlimit="10"/><polygon points="187.013 172.909 90.722 172.909 90.722 171.96 186.184 171.96 198.463 81.911 199.403 82.039 187.013 172.909" fill="none" stroke="#ccb5ff" stroke-linecap="round" stroke-miterlimit="10"/><path d="M206.9554,138.1371l-5.2885,38.7941a16.8132,16.8132,0,0,1-11.7659,13.4369,25.3437,25.3437,0,0,1-1.12-6.839,48.7971,48.7971,0,0,1,.1548-11.7314A55.5431,55.5431,0,0,1,206.9554,138.1371Z" fill="#f294ff"/><path d="M76.6784,89.0589H40.044a3.5471,3.5471,0,0,1-3.5877-4.1834h0A4.9774,4.9774,0,0,1,41.225,80.692H77.87a3.5413,3.5413,0,0,1,3.5823,4.1835h0A4.9868,4.9868,0,0,1,76.6784,89.0589Z" fill="#2f3133"/><path d="M61.5725,74.3155,76.7333,53.2331c1.0848-1.5074.265-3.3917-1.4756-3.3917H50.9139a2.5858,2.5858,0,0,0-2.4374,3.3917L57.66,74.3155C58.3154,75.8229,60.4892,75.8229,61.5725,74.3155Z" fill="#2f3133"/><path d="M73.8918,86.3447H39.7928a3.3016,3.3016,0,0,1-3.3394-3.8939h0a4.6329,4.6329,0,0,1,4.4387-3.8939H75.0012a3.2962,3.2962,0,0,1,3.3343,3.8939h0A4.6415,4.6415,0,0,1,73.8918,86.3447Z" fill="#ffa172"/><path d="M59.8313,72.6217,73.9429,52.9984a1.8854,1.8854,0,0,0-1.3735-3.157H49.91a2.4068,2.4068,0,0,0-2.2687,3.157l8.5475,19.6233C56.8,74.0248,58.823,74.0248,59.8313,72.6217Z" fill="#ffa172"/></svg>