<svg xmlns="http://www.w3.org/2000/svg" viewBox="0 0 73.69 120"><defs><style>.cls-1{fill:#1c4897;}.cls-2{opacity:0.5;}.cls-3{fill:#2053ad;}.cls-4{fill:#4177d7;}.cls-5{fill:#f99939;}.cls-6{fill:none;stroke:#00619f;stroke-linecap:round;stroke-miterlimit:10;stroke-width:0.25px;}</style></defs><g id="Layer_2" data-name="Layer 2"><g id="Calque_2" data-name="Calque 2"><path class="cls-1" d="M36.84,0C16.25,0-.49,17.24,0,37.5c.34,18.08,19.76,36,19.92,53.07h34c.17-17.58,19.42-35,19.75-53.07C74.18,17.24,57.43,0,36.84,0Z"/><g class="cls-2"><path class="cls-3" d="M6.87,39A1.68,1.68,0,0,1,5.2,37.37,31.69,31.69,0,0,1,36.84,5.19a1.68,1.68,0,1,1,0,3.35A28.32,28.32,0,0,0,8.55,37.3,1.68,1.68,0,0,1,6.91,39Z"/></g><rect class="cls-4" x="16.59" y="90.24" width="40.68" height="7.53" rx="3.18"/><path class="cls-4" d="M54.09,104.8H19.77a3.28,3.28,0,0,1-3.18-3.18v-1.17a3.29,3.29,0,0,1,3.18-3.18H54.09a3.3,3.3,0,0,1,3.18,3.18v1.17A3.18,3.18,0,0,1,54.09,104.8Z"/><rect class="cls-4" x="18.09" y="104.13" width="38" height="7.53" rx="3.18"/><path class="cls-4" d="M21.44,111s14.9,20.25,30.64,0"/><path class="cls-5" d="M59.11,41.85c0-.67-.84-1-1.34-1a4.62,4.62,0,0,1-3.18-8,1.27,1.27,0,0,0,.17-1.67,21.65,21.65,0,0,0-3.35-3.35,1.31,1.31,0,0,0-1.68.17,5.22,5.22,0,0,1-5.35,1.17,4.74,4.74,0,0,1-2.85-4.69,1.12,1.12,0,0,0-1-1.17,23.21,23.21,0,0,0-4.86,0,1.1,1.1,0,0,0-1,1.17A4.87,4.87,0,0,1,31.82,29a4.94,4.94,0,0,1-5.19-1.17A1.27,1.27,0,0,0,25,27.62,22.53,22.53,0,0,0,21.44,31a1.31,1.31,0,0,0,.17,1.68A4.63,4.63,0,0,1,22.78,38a4.93,4.93,0,0,1-4.69,2.85,1.12,1.12,0,0,0-1.17,1,23.22,23.22,0,0,0,0,4.86c0,.67.84,1,1.34,1a4.81,4.81,0,0,1,4.35,2.85,4.64,4.64,0,0,1-1.17,5.19,1.27,1.27,0,0,0-.17,1.67,21.22,21.22,0,0,0,3.35,3.35,1.28,1.28,0,0,0,1.68-.17,4.92,4.92,0,0,1,5.35-1.17,4.75,4.75,0,0,1,2.85,4.69,1.12,1.12,0,0,0,1,1.17,12.52,12.52,0,0,0,2.51.17,11,11,0,0,0,2.35-.17,1.1,1.1,0,0,0,1-1.17,4.85,4.85,0,0,1,2.85-4.52,4.94,4.94,0,0,1,5.19,1.17,1.29,1.29,0,0,0,1.67.17,23,23,0,0,0,3.52-3.35,1.29,1.29,0,0,0-.17-1.67,4.63,4.63,0,0,1-1.17-5.36,4.81,4.81,0,0,1,4.35-2.85h.34a1.12,1.12,0,0,0,1.17-1,23.2,23.2,0,0,0,0-4.86ZM38.18,53.41a9.21,9.21,0,1,1,9.21-9.21,9.19,9.19,0,0,1-9.21,9.21Z"/><line class="cls-6" x1="18.59" y1="97.52" x2="55.26" y2="97.52"/><line class="cls-6" x1="19.46" y1="104.75" x2="54.71" y2="104.75"/><line class="cls-6" x1="21.98" y1="111.67" x2="51.55" y2="111.67"/></g></g></svg>