<svg xmlns="http://www.w3.org/2000/svg" viewBox="0 0 120 74.11"><defs><style>.cls-1{fill:#1c4897;}.cls-2{fill:#2053ad;}.cls-3{fill:#4177d7;}.cls-4{fill:#f99939;}.cls-5{fill:#fff;}</style></defs><g id="Layer_2" data-name="Layer 2"><g id="Calque_2" data-name="Calque 2"><path class="cls-1" d="M.32,65.19C.32,29.19,27.08,0,60.16,0S120,29.19,120,65.19Z"/><path class="cls-2" d="M95.68,16.05a23.87,23.87,0,0,1,3.56.17A56.93,56.93,0,0,0,59.84,0C26.76,0,0,29.19,0,65.19H36C38.59,37.78,64.38,16.05,95.68,16.05Z"/><path class="cls-3" d="M92.92,29.35a3.61,3.61,0,0,0-.65-.81c-.49-.49-1.13-1.3-2.11-2.27A36.59,36.59,0,0,0,86.59,23a46,46,0,0,0-5.18-3.57,20.3,20.3,0,0,0-3.25-1.78,6,6,0,0,0-1.78-.82c-.65-.32-1.14-.48-1.79-.81L70.7,14.59c-1.29-.48-2.75-.64-4.21-1.13-1.46-.16-2.92-.49-4.38-.65-.81,0-1.46-.16-2.27-.16l-1.14-.16H53.84l-1.14.16a21.88,21.88,0,0,0-4.54.81l-2.27.65-2.27.81a26.19,26.19,0,0,0-4.38,1.94l-1.13.49-1,.65c-.65.32-1.3.81-2,1.14-1.3.81-2.6,1.78-3.73,2.59l-3.41,2.92c-1,1-2.1,1.94-3.08,3.08a40.88,40.88,0,0,0-4.86,6.16l-1.95,2.92c-.48,1-1,1.95-1.46,2.76-.81,1.78-1.46,3.4-1.94,4.7A18.22,18.22,0,0,0,14,47.51a5.54,5.54,0,0,1-.33,1.14,6.87,6.87,0,0,1,.16-1.14c.17-.81.33-1.94.65-3.24a45.23,45.23,0,0,1,1.62-4.86c.49-1,.81-1.95,1.3-2.92a29.53,29.53,0,0,1,1.79-3.08,66.93,66.93,0,0,1,4.54-6.65c.81-1.14,1.94-2.11,2.91-3.25s2.11-2.1,3.25-3.24c1.3-1,2.43-2.11,3.73-2.92l1.94-1.46,1.79-.65,1.13-.65A40,40,0,0,1,43,12.32l2.27-1,2.44-.81c1.62-.65,3.4-.81,5-1.3L54,8.92l1.3-.16c.81,0,1.62-.17,2.43-.17h5l4.86.49c1.62.33,3.08.49,4.7,1,1.46.49,2.92.81,4.38,1.3a10,10,0,0,0,2.11.65c.65.32,1.3.49,2,.81,1.29.49,2.43,1.14,3.73,1.78a35.76,35.76,0,0,1,6,3.73q2.67,2,4.37,3.41c1.14,1,2,1.95,2.6,2.43.32.33.49.65.65.81l.16.17Z"/><path class="cls-4" d="M58.38,60.81l6.48,7,36.17-37a.46.46,0,0,0-.65-.65Z"/><path class="cls-5" d="M60.65,71.51a7.06,7.06,0,0,1-4.87-2.1,6.62,6.62,0,0,1,.33-9.25,6.26,6.26,0,0,1,4.38-1.78,7,7,0,0,1,4.86,2.11A6.61,6.61,0,0,1,65,69.73,5.64,5.64,0,0,1,60.65,71.51Z"/><path class="cls-4" d="M60.65,61h0a4.44,4.44,0,0,1,3.08,1.3,3.9,3.9,0,0,1,1.13,2.92,4.07,4.07,0,0,1-1.29,2.92,4.6,4.6,0,0,1-2.76,1.13A4.43,4.43,0,0,1,57.73,68a4.13,4.13,0,0,1,.32-5.84A3.25,3.25,0,0,1,60.65,61m0-4.86a8.6,8.6,0,0,0-6,2.43,9,9,0,0,0,6.16,15.57,8.6,8.6,0,0,0,6-2.43,9,9,0,0,0-6.16-15.57Z"/></g></g></svg>