<svg xmlns="http://www.w3.org/2000/svg" viewBox="0 0 71.96 120"><defs><style>.cls-1{fill:#4177d7;}.cls-2{fill:#1c4897;}.cls-3{fill:#f99939;}</style></defs><g id="Layer_2" data-name="Layer 2"><g id="Calque_2" data-name="Calque 2"><rect class="cls-1" width="71.96" height="120" rx="7.25"/><rect class="cls-2" y="13.96" width="71.96" height="87.19"/><circle class="cls-2" cx="36.07" cy="110.76" r="5.8"/><path class="cls-2" d="M47.67,8.88H26.1a1.71,1.71,0,0,1-1.81-1.81A1.71,1.71,0,0,1,26.1,5.26H47.67a1.71,1.71,0,0,1,1.82,1.81A1.71,1.71,0,0,1,47.67,8.88Z"/><path class="cls-3" d="M54.2,56.74H45.5a4,4,0,0,1,0-8h8.7a4,4,0,0,1,4,3.81A4.07,4.07,0,0,1,54.2,56.74Zm-8.7-6.17a2.1,2.1,0,0,0-2.18,2.18,2.33,2.33,0,0,0,2.18,2.17h8.7a2.08,2.08,0,0,0,2.17-2.17,2.33,2.33,0,0,0-2.17-2.18Z"/><path class="cls-3" d="M52.57,62.9H44.05a4,4,0,0,1,0-8h8.52a4,4,0,0,1,0,8Zm-8.52-6.16a2.18,2.18,0,0,0,0,4.35h8.52a2.18,2.18,0,0,0,0-4.35Z"/><path class="cls-3" d="M50.57,68.52H42.42a3.81,3.81,0,1,1,0-7.61h8.15a3.81,3.81,0,1,1,0,7.61Zm-8.15-5.8a2,2,0,1,0,0,4h8.15a2,2,0,1,0,0-4Z"/><path class="cls-3" d="M48,74.5H41.15a3.81,3.81,0,1,1,0-7.61H48a4.06,4.06,0,0,1,3.8,3.62A3.76,3.76,0,0,1,48,74.5Zm-6.89-5.8a2,2,0,1,0,0,4H48a2,2,0,0,0,2-2,2.31,2.31,0,0,0-2-2Z"/><path class="cls-3" d="M34.8,66.89a.66.66,0,0,1-.54-.18.88.88,0,0,1,0-1.27,33.35,33.35,0,0,0,7.43-15.23c1.63-9.61.73-12.14-.18-13.05-.36-.36-.91-.36-1.63-.36H39.7C37.52,51.66,27,55.83,26.47,56a.86.86,0,0,1-.55-1.63c.36-.18,10-4,12.15-17.58a1.67,1.67,0,0,1,1.81-1.63,3.48,3.48,0,0,1,3.08.9c1.81,1.82,2,6.53.54,14.5a35.06,35.06,0,0,1-7.79,16.14A8.05,8.05,0,0,0,34.8,66.89Z"/><path class="cls-3" d="M35.71,77a17.4,17.4,0,0,1-10.15-2.9l1.09-1.45c8.33,5.8,20.84,0,21,0l.73,1.63C48,74.32,42.24,77,35.71,77Z"/><path class="cls-3" d="M21.93,76.68H18.31a4.49,4.49,0,0,1-4.53-4.53V55.83a4.48,4.48,0,0,1,4.53-4.53h3.62a4.49,4.49,0,0,1,4.54,4.53V72.15A4.5,4.5,0,0,1,21.93,76.68ZM18.31,53.11a2.79,2.79,0,0,0-2.72,2.72V72.15a2.78,2.78,0,0,0,2.72,2.71h3.62a2.78,2.78,0,0,0,2.72-2.71V55.83a2.79,2.79,0,0,0-2.72-2.72Z"/></g></g></svg>